<?xml version="1.0" encoding="UTF-8"?>
<svg xmlns="http://www.w3.org/2000/svg" width="192" height="192" viewBox="0 0 192 192" fill="none">
  <defs>
    <linearGradient id="brand" x1="24" y1="24" x2="168" y2="168" gradientUnits="userSpaceOnUse">
      <stop offset="0" stop-color="#16a34a"/>
      <stop offset="1" stop-color="#0ea5a5"/>
    </linearGradient>
  </defs>
  <rect width="192" height="192" rx="44" fill="#0B0B0C"/>
  <circle cx="96" cy="96" r="64" stroke="url(#brand)" stroke-width="10" fill="none"/>
  <g transform="translate(96 96) rotate(45)">
    <rect x="-32" y="-32" width="64" height="64" rx="16" fill="url(#brand)"/>
  </g>
  <circle cx="96" cy="96" r="8" fill="#fff" fill-opacity="0.95"/>
</svg>

<svg xmlns="http://www.w3.org/2000/svg" width="192" height="192" viewBox="0 0 192 192" fill="none">
  <defs>
    <linearGradient id="logo192Gradient" x1="0%" y1="0%" x2="100%" y2="100%">
      <stop offset="0%" style="stop-color:#3B82F6;stop-opacity:1" />
      <stop offset="100%" style="stop-color:#1D4ED8;stop-opacity:1" />
    </linearGradient>
  </defs>
  
  <!-- Background circle with padding -->
  <circle cx="96" cy="96" r="88" fill="url(#logo192Gradient)"/>
  
  <!-- H symbol with tier elements -->
  <g fill="white">
    <!-- Main H structure -->
    <rect x="48" y="48" width="16" height="96" rx="8"/>
    <rect x="128" y="48" width="16" height="96" rx="8"/>
    <rect x="48" y="88" width="96" height="16" rx="8"/>
    
    <!-- Tier steps ascending -->
    <rect x="150" y="128" width="24" height="8" rx="4"/>
    <rect x="154" y="112" width="24" height="8" rx="4"/>
    <rect x="158" y="96" width="20" height="8" rx="4"/>
  </g>
</svg>
